PathFileType	4	(X/Y/Z)	5_coords_data.trc
DataRate	CameraRate	NumFrames	NumMarkers	Units	OrigDataRate	OrigDataStartFrame	OrigNumFrames
30.0	30.0	4	21	m	30.0	1	59
Frame#	Time	THUMB_TIP	THUMB_IP	THUMB_MCP	THUMB_CMC	INDEX_TIP	INDEX_DIP	INDEX_PIP	INDEX_MCP	MIDDLE_TIP	MIDDLE_DIP	MIDDLE_PIP	MIDDLE_MCP	RING_TIP	RING_DIP	RING_PIP	RING_MCP	PINKY_TIP	PINKY_DIP	PINKY_PIP	PINKY_MCP	WRIST
X1	Y1	Z1	X2	Y2	Z2	X3	Y3	Z3	X4	Y4	Z4	X5	Y5	Z5	X6	Y6	Z6	X7	Y7	Z7	X8	Y8	Z8	X9	Y9	Z9	X10	Y10	Z10	X11	Y11	Z11	X12	Y12	Z12	X13	Y13	Z13	X14	Y14	Z14	X15	Y15	Z15	X16	Y16	Z16	X17	Y17	Z17	X18	Y18	Z18	X19	Y19	Z19	X20	Y20	Z20	X21	Y21	Z21
0	-2.749317978547796e-18	0.5054620537867148	-0.00036893440606533545	-0.16125947482170494	0.5005515523848473	-0.007070123205661916	-0.13983563192052545	0.48076488130108264	-0.022458769352220798	-0.12138306523729916	0.4741060088051874	-0.02793198893264648	-0.07761557405368369	0.5015989908885226	-0.030692783454815076	-0.09569438035590705	0.5148664612816185	-0.02137793452339165	-0.1037695161908686	0.5272321100348769	-0.00400902685326554	-0.11708948654585338	0.49198493284537825	0.019842405334563717	-0.1186327871521759	0.5039792469455613	-0.021137476562916313	-0.08501747891002137	0.520121701272437	-0.014268068533487499	-0.08951552311055483	0.535253989439831	0.008057533054503407	-0.10056047302231308	0.4968296765121938	0.030762507073856193	-0.10261090025085012	0.5043529453952346	-0.011252815808623473	-0.07027563795524794	0.5205163860987418	-0.004111449248813681	-0.07384552146632212	0.5361164755030342	0.013662406388091242	-0.08164983087693306	0.5035289957253978	0.037421131523654894	-0.08453079871342081	0.5074819293640945	-0.008746706458555908	-0.056140118001664324	0.5242791016936944	-0.006167608041970141	-0.058190301673262335	0.5366839864726125	0.01009395098327448	-0.06293293287231816	0.5089421801307751	0.03314142271038334	-0.06323239719426202	0.4622830810018609	-0.023011742144276925	-0.051989820119430985
1	0.03333333333333339	0.5053079235391279	-0.0003661388184700298	-0.16111741071004218	0.5005761429698665	-0.007175538657970382	-0.13968747075515253	0.4808083073009015	-0.02259029830427517	-0.1212365125683415	0.47434565801442985	-0.028180696764701252	-0.0774544202330758	0.5009120197273658	-0.03036775765107025	-0.09558884267151377	0.5146421818847771	-0.021633462257716896	-0.10353835404724207	0.5271605633273719	-0.004340902564198501	-0.11681492507683405	0.492014888804703	0.01963104280342487	-0.11875489714836071	0.5032765024683743	-0.02130054931332126	-0.0848572842469355	0.5198045354921285	-0.015129649429321601	-0.08894924208974664	0.5349315567037456	0.007049371564899598	-0.10029268984610265	0.4970843124987242	0.030688198618104012	-0.10251527452034193	0.5037966319554784	-0.009817551421906101	-0.0709087908257221	0.5206858411197511	-0.004287827322812188	-0.07393810843755247	0.5362927667193854	0.013570578850993775	-0.08153292122384648	0.5037122604600227	0.037333064888608214	-0.0844613513827901	0.5071977903903029	-0.008822665204087254	-0.05605246052460694	0.5240630845603621	-0.006551638822122285	-0.05789753280768617	0.5366801398254434	0.009590918785933322	-0.062484445637519814	0.5092209680233847	0.032972455893169994	-0.06290995409565237	0.462283081001861	-0.023011742144276925	-0.051989820119430985
2	0.06666666666666676	0.5052032754621963	-0.0003677967088379086	-0.1610003722254486	0.5006076920839378	-0.007261477580809084	-0.1395677387556929	0.4808533851283826	-0.02269578564292929	-0.12111863332075984	0.474528623630307	-0.02837134583426304	-0.07732736240397778	0.5004104471326192	-0.030119398108397366	-0.09550999888404954	0.5144669319484029	-0.0218270437196042	-0.10336188358227957	0.527106995828986	-0.00459600433003815	-0.1166031033013992	0.4920452005561803	0.01947248284022285	-0.11884241828211128	0.5027687076714974	-0.02142442682530643	-0.08472455734303766	0.5195542738838779	-0.0157752054410093	-0.08851019661282922	0.5346768381281912	0.006286519290320869	-0.10008594291946687	0.49728702862382756	0.03063040147794094	-0.10243657395445976	0.5034817541477672	-0.008640236524425249	-0.07142873601583438	0.5208191127897609	-0.004424008649887012	-0.0740054427955926	0.5364319079611131	0.013496921507127113	-0.081439208210564	0.5038581799730236	0.03726439868364573	-0.08440233284878446	0.5069871716136654	-0.008873994141103125	-0.05599042955561048	0.5239003405606327	-0.0068473033027026675	-0.05767484055560029	0.5366769929189416	0.0092039543846133	-0.06213872901414183	0.5094372748008896	0.03283889533038664	-0.06265908883089336	0.462283081001861	-0.023011742144276925	-0.051989820119430985
3	0.10000000000000014	0.5051394414238085	-0.00036890702997804947	-0.16090940563715095	0.5006415091150459	-0.007325761090020921	-0.13947646868177643	0.4808951895049455	-0.022773587117089544	-0.12103012668957719	0.47466053259260466	-0.028508626316597008	-0.07723368415635859	0.5000653873688691	-0.0299452978578848	-0.09544856076463396	0.5143398643864759	-0.021967153733979394	-0.10323242370099156	0.5270720465382412	-0.004782911526441724	-0.11644617375186495	0.492076624472767	0.01936124278356921	-0.11889899684244679	0.5024212463497904	-0.021514187958438957	-0.08462365807807226	0.5193744909820481	-0.016234474023762546	-0.08818906369410093	0.5344942567229047	0.005740036900646062	-0.0999331304332961	0.49744339563321127	0.030588181056076635	-0.10237266841069631	0.503329347280842	-0.007777233976258402	-0.07181439544604337	0.5209196601569768	-0.004524365953526899	-0.07405040585442252	0.5365378808189865	0.013440687084379732	-0.0813653242885527	0.5039704377347235	0.03721381018995418	-0.08435214580322373	0.506842810885974	-0.008911492644224861	-0.05594617398887894	0.5237878796083185	-0.007065428946026797	-0.05751355869507513	0.5366767698095509	0.008921481652848562	-0.06188473907160269	0.5095975838795451	0.03273861929721622	-0.062472186769213955	0.4622830810018608	-0.023011742144276925	-0.05198982011943096
